# xmcd
#
# Track frame offsets:
#	150
#	12927
#	25397
#	38227
#	57683
#	76093
#	92428
#	107654
#	122161
#	134358
#	152198
#	163335
#	176185
#	190220
#	200574
#
# Disc length: 2834 seconds
#
# Revision: 0
# Processed by: cddbd v1.5.1PL2 Copyright (c) Steve Scherf et al.
# Submitted via: audiograbber 1.83.01
#
DISCID=cf0b100f
DTITLE=Chartbuster - cb90081
DYEAR=1900
DGENRE=Karaoke
TTITLE0=Watson, Gene - Got No Reason Now For Goin' Home
TTITLE1=Watson, Gene - Should I Come Home Or Should I Go Crazy
TTITLE2=Watson, Gene - Fourteen Carat Mind
TTITLE3=Watson, Gene - Farewell Party
TTITLE4=Watson, Gene - Paper Rosie
TTITLE5=Watson, Gene - Love In The Hot Afternoon
TTITLE6=Watson, Gene - Where Love Begins
TTITLE7=Watson, Gene - You Could Know As Much About A Stranger
TTITLE8=Watson, Gene - Pick The Wildwood Flower
TTITLE9=Watson, Gene - Nothing Sure Looked Good On You
TTITLE10=Watson, Gene - Speak Softly You're Talking To My Heart
TTITLE11=Watson, Gene - You're Out Doing What I'm Here Doing Without
TTITLE12=Watson, Gene - Sometimes I Get Lucky And Forget
TTITLE13=Watson, Gene - Drinkin' My Way Back Home
TTITLE14=Watson, Gene - Forever Again
EXTD=
EXTT0=
EXTT1=
EXTT2=
EXTT3=
EXTT4=
EXTT5=
EXTT6=
EXTT7=
EXTT8=
EXTT9=
EXTT10=
EXTT11=
EXTT12=
EXTT13=
EXTT14=
PLAYORDER=
